<?xml version="1.0" standalone="yes"?>

<svg version="1.1" viewBox="0.0 0.0 960.4698162729659 283.12598425196853" fill="none" stroke="none" stroke-linecap="square" stroke-miterlimit="10" xmlns="http://www.w3.org/2000/svg" xmlns:xlink="http://www.w3.org/1999/xlink"><clipPath id="p.0"><path d="m0 0l960.4698 0l0 283.12598l-960.4698 0l0 -283.12598z" clip-rule="nonzero"></path></clipPath><g clip-path="url(#p.0)"><path fill="#000000" fill-opacity="0.0" d="m0 0l960.4698 0l0 283.12598l-960.4698 0z" fill-rule="evenodd"></path><path fill="#d0e0e3" d="m356.24933 77.81365l236.25201 0l0 149.07086l-236.25201 0z" fill-rule="evenodd"></path><path fill="#d0e0e3" d="m638.90027 205.78215l-78.74017 -53.433075l78.74017 -53.433067z" fill-rule="evenodd"></path><path fill="#000000" fill-opacity="0.0" d="m188.91077 153.73491l167.33856 -1.3858337" fill-rule="evenodd"></path><path stroke="#000000" stroke-width="1.0" stroke-linejoin="round" stroke-linecap="butt" d="m188.91077 153.73491l161.33878 -1.3361359" fill-rule="evenodd"></path><path fill="#000000" stroke="#000000" stroke-width="1.0" stroke-linecap="butt" d="m350.2632 154.05045l4.524292 -1.6892548l-4.5516357 -1.61409z" fill-rule="evenodd"></path><path fill="#000000" fill-opacity="0.0" d="m638.90027 152.34908l132.18896 0" fill-rule="evenodd"></path><path stroke="#000000" stroke-width="1.0" stroke-linejoin="round" stroke-linecap="butt" d="m638.90027 152.34908l126.188965 0" fill-rule="evenodd"></path><path fill="#000000" stroke="#000000" stroke-width="1.0" stroke-linecap="butt" d="m765.08923 154.00081l4.538086 -1.6517334l-4.538086 -1.6517334z" fill-rule="evenodd"></path><path fill="#000000" fill-opacity="0.0" d="m56.721786 122.821526l132.18898 0l0 59.055122l-132.18898 0z" fill-rule="evenodd"></path><path fill="#000000" d="m98.6444 154.24464q0 3.90625 -1.78125 6.265625q-1.765625 2.34375 -4.78125 2.34375q-2.5625 0 -4.140625 -1.78125l0 7.96875l-4.515625 0l0 -23.40625l4.1875 0l0.15625 1.65625q1.640625 -1.96875 4.28125 -1.96875q3.125 0 4.859375 2.3125q1.734375 2.3125 1.734375 6.375l0 0.234375zm-4.515625 -0.328125q0 -2.359375 -0.84375 -3.640625q-0.828125 -1.28125 -2.421875 -1.28125q-2.125 0 -2.921875 1.625l0 6.921875q0.828125 1.671875 2.953125 1.671875q3.234375 0 3.234375 -5.296875zm16.8125 -4.046875q-0.921875 -0.125 -1.625 -0.125q-2.5625 0 -3.359375 1.734375l0 11.0625l-4.515625 0l0 -16.90625l4.265625 0l0.125 2.015625q1.359375 -2.328125 3.765625 -2.328125q0.75 0 1.40625 0.203125l-0.0625 4.34375zm1.46875 4.0625q0 -2.515625 0.96875 -4.484375q0.96875 -1.96875 2.78125 -3.046875q1.828125 -1.078125 4.234375 -1.078125q3.421875 0 5.578125 2.09375q2.1718674 2.09375 2.4218674 5.6875l0.03125 1.15625q0 3.890625 -2.1718674 6.25q-2.171875 2.34375 -5.828125 2.34375q-3.65625 0 -5.84375 -2.34375q-2.171875 -2.34375 -2.171875 -6.375l0 -0.203125zm4.515625 0.328125q0 2.40625 0.90625 3.6875q0.90625 1.265625 2.59375 1.265625q1.640625 0 2.5625 -1.25q0.921875 -1.265625 0.921875 -4.03125q0 -2.359375 -0.921875 -3.65625q-0.921875 -1.296875 -2.59375 -1.296875q-1.65625 0 -2.5625 1.296875q-0.90625 1.28125 -0.90625 3.984375zm29.499992 -0.015625q0 3.90625 -1.78125 6.265625q-1.765625 2.34375 -4.78125 2.34375q-2.5625 0 -4.140625 -1.78125l0 7.96875l-4.515625 0l0 -23.40625l4.1875 0l0.15625 1.65625q1.640625 -1.96875 4.28125 -1.96875q3.125 0 4.859375 2.3125q1.734375 2.3125 1.734375 6.375l0 0.234375zm-4.515625 -0.328125q0 -2.359375 -0.84375 -3.640625q-0.828125 -1.28125 -2.421875 -1.28125q-2.125 0 -2.921875 1.625l0 6.921875q0.828125 1.671875 2.953125 1.671875q3.234375 0 3.234375 -5.296875zm16.46875 3.953125q0 -0.828125 -0.828125 -1.296875q-0.8125 -0.484375 -2.625 -0.859375q-6.03125 -1.265625 -6.03125 -5.125q0 -2.25 1.859375 -3.75q1.875 -1.515625 4.890625 -1.515625q3.21875 0 5.140625 1.515625q1.9375 1.515625 1.9375 3.9375l-4.515625 0q0 -0.96875 -0.625 -1.59375q-0.625 -0.640625 -1.953125 -0.640625q-1.140625 0 -1.765625 0.515625q-0.625 0.515625 -0.625 1.3125q0 0.75 0.703125 1.21875q0.71875 0.453125 2.40625 0.796875q1.6875 0.328125 2.84375 0.75q3.578125 1.3125 3.578125 4.546875q0 2.3125 -1.984375 3.75q-1.984375 1.421875 -5.125 1.421875q-2.125 0 -3.78125 -0.75q-1.640625 -0.765625 -2.578125 -2.078125q-0.9375 -1.328125 -0.9375 -2.859375l4.28125 0q0.0625 1.203125 0.890625 1.84375q0.828125 0.640625 2.21875 0.640625q1.296875 0 1.953125 -0.484375q0.671875 -0.5 0.671875 -1.296875z" fill-rule="nonzero"></path><path fill="#000000" fill-opacity="0.0" d="m771.08923 123.514435l132.18896 0l0 59.055115l-132.18896 0z" fill-rule="evenodd"></path><path fill="#000000" d="m813.8478 163.23444l-4.6875 0l0 -9.75l-9.140625 0l0 9.75l-4.6875 0l0 -22.75l4.6875 0l0 9.21875l9.140625 0l0 -9.21875l4.6875 0l0 22.75zm21.21875 -18.953125l-6.96875 0l0 18.953125l-4.6875 0l0 -18.953125l-6.875 0l0 -3.796875l18.53125 0l0 3.796875zm8.796875 -3.796875l5.84375 16.5l5.8125 -16.5l6.15625 0l0 22.75l-4.703125 0l0 -6.21875l0.46875 -10.734375l-6.140625 16.953125l-3.21875 0l-6.125 -16.9375l0.46875 10.71875l0 6.21875l-4.6875 0l0 -22.75l6.125 0zm26.59375 18.984375l9.953125 0l0 3.765625l-14.640625 0l0 -22.75l4.6875 0l0 18.984375z" fill-rule="nonzero"></path><path fill="#000000" fill-opacity="0.0" d="m376.40683 122.821526l195.93698 0l0 59.055122l-195.93698 0z" fill-rule="evenodd"></path><path fill="#000000" d="m410.86752 154.9634q-0.265625 3.671875 -2.71875 5.78125q-2.4375 2.109375 -6.4375 2.109375q-4.375 0 -6.890625 -2.9375q-2.5 -2.953125 -2.5 -8.09375l0 -1.390625q0 -3.28125 1.15625 -5.78125q1.15625 -2.5 3.296875 -3.828125q2.15625 -1.34375 5.0 -1.34375q3.9375 0 6.34375 2.109375q2.40625 2.109375 2.78125 5.921875l-4.6875 0q-0.171875 -2.203125 -1.234375 -3.1875q-1.046875 -1.0 -3.203125 -1.0q-2.34375 0 -3.515625 1.6875q-1.15625 1.671875 -1.1875 5.203125l0 1.71875q0 3.6875 1.109375 5.390625q1.125 1.703125 3.53125 1.703125q2.171875 0 3.234375 -0.984375q1.078125 -1.0 1.234375 -3.078125l4.6875 0zm2.078125 -1.03125q0 -2.515625 0.96875 -4.484375q0.96875 -1.96875 2.78125 -3.046875q1.828125 -1.078125 4.234375 -1.078125q3.421875 0 5.578125 2.09375q2.171875 2.09375 2.421875 5.6875l0.03125 1.15625q0 3.890625 -2.171875 6.25q-2.171875 2.34375 -5.828125 2.34375q-3.65625 0 -5.84375 -2.34375q-2.171875 -2.34375 -2.171875 -6.375l0 -0.203125zm4.515625 0.328125q0 2.40625 0.90625 3.6875q0.90625 1.265625 2.59375 1.265625q1.640625 0 2.5625 -1.25q0.921875 -1.265625 0.921875 -4.03125q0 -2.359375 -0.921875 -3.65625q-0.921875 -1.296875 -2.59375 -1.296875q-1.65625 0 -2.5625 1.296875q-0.90625 1.28125 -0.90625 3.984375zm18.515625 -8.625l0.140625 1.890625q1.796875 -2.203125 4.859375 -2.203125q3.265625 0 4.484375 2.578125q1.78125 -2.578125 5.078125 -2.578125q2.75 0 4.09375 1.609375q1.34375 1.59375 1.34375 4.8125l0 10.796875l-4.53125 0l0 -10.78125q0 -1.4375 -0.5625 -2.09375q-0.5625 -0.671875 -1.984375 -0.671875q-2.03125 0 -2.8125 1.9375l0.015625 11.609375l-4.515625 0l0 -10.765625q0 -1.46875 -0.578125 -2.125q-0.578125 -0.65625 -1.96875 -0.65625q-1.921875 0 -2.78125 1.59375l0 11.953125l-4.515625 0l0 -16.90625l4.234375 0zm38.6875 8.609375q0 3.90625 -1.78125 6.265625q-1.765625 2.34375 -4.78125 2.34375q-2.5625 0 -4.140625 -1.78125l0 7.96875l-4.515625 0l0 -23.40625l4.1875 0l0.15625 1.65625q1.640625 -1.96875 4.28125 -1.96875q3.125 0 4.859375 2.3125q1.734375 2.3125 1.734375 6.375l0 0.234375zm-4.515625 -0.328125q0 -2.359375 -0.84375 -3.640625q-0.828125 -1.28125 -2.421875 -1.28125q-2.125 0 -2.921875 1.625l0 6.921875q0.828125 1.671875 2.953125 1.671875q3.234375 0 3.234375 -5.296875zm6.609375 0.015625q0 -2.515625 0.96875 -4.484375q0.96875 -1.96875 2.78125 -3.046875q1.828125 -1.078125 4.234375 -1.078125q3.421875 0 5.578125 2.09375q2.171875 2.09375 2.421875 5.6875l0.03125 1.15625q0 3.890625 -2.171875 6.25q-2.171875 2.34375 -5.828125 2.34375q-3.65625 0 -5.84375 -2.34375q-2.171875 -2.34375 -2.171875 -6.375l0 -0.203125zm4.515625 0.328125q0 2.40625 0.90625 3.6875q0.90625 1.265625 2.59375 1.265625q1.640625 0 2.5625 -1.25q0.921875 -1.265625 0.921875 -4.03125q0 -2.359375 -0.921875 -3.65625q-0.921875 -1.296875 -2.59375 -1.296875q-1.65625 0 -2.5625 1.296875q-0.90625 1.28125 -0.90625 3.984375zm18.4375 -8.625l0.140625 1.953125q1.8125 -2.265625 4.859375 -2.265625q2.6875 0 4.0 1.578125q1.3125 1.578125 1.34375 4.71875l0 10.921875l-4.515625 0l0 -10.8125q0 -1.4375 -0.625 -2.078125q-0.625 -0.65625 -2.078125 -0.65625q-1.90625 0 -2.859375 1.625l0 11.921875l-4.515625 0l0 -16.90625l4.25 0zm21.546844 17.21875q-3.71875 0 -6.0625 -2.28125q-2.328125 -2.28125 -2.328125 -6.078125l0 -0.4375q0 -2.546875 0.984375 -4.546875q0.984375 -2.015625 2.78125 -3.09375q1.8125 -1.09375 4.125 -1.09375q3.46875 0 5.453125 2.1875q2.0 2.1875 2.0 6.203125l0 1.84375l-10.765625 0q0.21875 1.65625 1.3125 2.65625q1.109375 1.0 2.796875 1.0q2.609375 0 4.078125 -1.890625l2.21875 2.484375q-1.015625 1.4375 -2.75 2.25q-1.734375 0.796875 -3.84375 0.796875zm-0.515625 -13.875q-1.34375 0 -2.1875 0.90625q-0.828125 0.90625 -1.0625 2.59375l6.28125 0l0 -0.359375q-0.03125 -1.5 -0.8125 -2.3125q-0.78125 -0.828125 -2.21875 -0.828125zm14.1875 -3.34375l0.140625 1.953125q1.8125 -2.265625 4.859375 -2.265625q2.6875 0 4.0 1.578125q1.3125 1.578125 1.34375 4.71875l0 10.921875l-4.515625 0l0 -10.8125q0 -1.4375 -0.625 -2.078125q-0.625 -0.65625 -2.078125 -0.65625q-1.90625 0 -2.859375 1.625l0 11.921875l-4.515625 0l0 -16.90625l4.25 0zm19.171875 -4.15625l0 4.15625l2.890625 0l0 3.3125l-2.890625 0l0 8.4375q0 0.9375 0.359375 1.34375q0.359375 0.40625 1.375 0.40625q0.75 0 1.328125 -0.109375l0 3.421875q-1.328125 0.40625 -2.734375 0.40625q-4.75 0 -4.84375 -4.796875l0 -9.109375l-2.46875 0l0 -3.3125l2.46875 0l0 -4.15625l4.515625 0z" fill-rule="nonzero"></path></g></svg>

